<svg width="140" height="140" viewBox="0 0 140 140" fill="none" xmlns="http://www.w3.org/2000/svg">
<g filter="url(#filter0_d_10_59)">
<path fill-rule="evenodd" clip-rule="evenodd" d="M56.8167 92.61C56.9119 93.1769 56.8945 93.757 56.7654 94.3172C56.6364 94.8773 56.3982 95.4066 56.0645 95.8746C55.7307 96.3427 55.3081 96.7404 54.8206 97.045C54.3331 97.3496 53.7903 97.5552 53.2233 97.65C39.2264 99.9999 25.8898 105.301 14.0992 113.202C13.1346 113.847 11.9532 114.082 10.8149 113.856C9.67664 113.63 8.67473 112.962 8.02959 111.997C7.38445 111.032 7.14893 109.851 7.37483 108.713C7.60073 107.575 8.26956 106.573 9.23417 105.927C22.055 97.3369 36.5569 91.5723 51.7767 89.0166C52.3436 88.9214 52.9237 88.9388 53.4839 89.0679C54.044 89.197 54.5733 89.4352 55.0413 89.7689C55.5094 90.1026 55.9071 90.5253 56.2117 91.0128C56.5163 91.5002 56.7219 92.043 56.8167 92.61ZM83.1833 92.61C83.2781 92.043 83.4837 91.5002 83.7883 91.0128C84.0929 90.5253 84.4906 90.1026 84.9587 89.7689C85.4268 89.4352 85.956 89.197 86.5162 89.0679C87.0763 88.9388 87.6564 88.9214 88.2233 89.0166C103.443 91.5723 117.945 97.3369 130.766 105.927C131.73 106.573 132.399 107.575 132.625 108.713C132.851 109.851 132.616 111.032 131.97 111.997C131.325 112.962 130.323 113.63 129.185 113.856C128.047 114.082 126.865 113.847 125.901 113.202C114.11 105.301 100.774 99.9999 86.7767 97.65C86.2097 97.5552 85.667 97.3496 85.1795 97.045C84.692 96.7404 84.2693 96.3427 83.9356 95.8746C83.6019 95.4066 83.3637 94.8773 83.2346 94.3172C83.1055 93.757 83.0881 93.1769 83.1833 92.61Z" fill="white"/>
<path fill-rule="evenodd" clip-rule="evenodd" d="M36.4583 58.3333C36.4583 49.4375 39.9922 40.9061 46.2825 34.6158C52.5728 28.3255 61.1042 24.7917 70 24.7917C78.8958 24.7917 87.4273 28.3255 93.7176 34.6158C100.008 40.9061 103.542 49.4375 103.542 58.3333C103.542 74.3283 95.585 88.3925 88.0542 98.1867C83.8902 103.575 79.2283 108.559 74.13 113.073C73.7074 113.439 73.2796 113.799 72.8467 114.152L72.7708 114.222L72.7475 114.24H72.7358C72.7358 114.246 72.7358 114.252 70 110.833L67.4917 114.415L67.4742 114.403L67.4508 114.386L67.3633 114.327L67.0775 114.117L66.0567 113.347C64.857 112.407 63.6859 111.43 62.545 110.419C58.7212 107.035 55.1928 103.331 51.9983 99.3475C44.3567 89.7983 36.4583 75.7342 36.4583 58.3333ZM70 110.833L67.4917 114.415C68.266 114.958 69.1955 115.236 70.141 115.207C71.0864 115.177 71.9969 114.842 72.7358 114.252L70 110.833ZM69.8483 105.157C70.3539 104.699 70.91 104.174 71.5167 103.582C74.9731 100.242 78.1822 96.6549 81.1183 92.8492C88.165 83.6908 94.7917 71.505 94.7917 58.3333C94.7917 51.7582 92.1797 45.4523 87.5304 40.803C82.881 36.1536 76.5752 33.5417 70 33.5417C63.4249 33.5417 57.119 36.1536 52.4697 40.803C47.8203 45.4523 45.2083 51.7582 45.2083 58.3333C45.2083 73.0158 51.8875 85.2017 58.835 93.8817C62.134 97.9866 65.8223 101.763 69.8483 105.157ZM70 51.0417C68.0661 51.0417 66.2115 51.8099 64.844 53.1773C63.4766 54.5448 62.7083 56.3995 62.7083 58.3333C62.7083 60.2672 63.4766 62.1219 64.844 63.4893C66.2115 64.8568 68.0661 65.625 70 65.625C71.9339 65.625 73.7885 64.8568 75.156 63.4893C76.5235 62.1219 77.2917 60.2672 77.2917 58.3333C77.2917 56.3995 76.5235 54.5448 75.156 53.1773C73.7885 51.8099 71.9339 51.0417 70 51.0417ZM53.9583 58.3333C53.9583 54.0788 55.6484 49.9985 58.6568 46.9902C61.6652 43.9818 65.7455 42.2917 70 42.2917C74.2545 42.2917 78.3348 43.9818 81.3432 46.9902C84.3516 49.9985 86.0417 54.0788 86.0417 58.3333C86.0417 62.5878 84.3516 66.6681 81.3432 69.6765C78.3348 72.6849 74.2545 74.375 70 74.375C65.7455 74.375 61.6652 72.6849 58.6568 69.6765C55.6484 66.6681 53.9583 62.5878 53.9583 58.3333Z" fill="white"/>
</g>
<defs>
<filter id="filter0_d_10_59" x="-4" y="0" width="148" height="148" filterUnits="userSpaceOnUse" color-interpolation-filters="sRGB">
<feFlood flood-opacity="0" result="BackgroundImageFix"/>
<feColorMatrix in="SourceAlpha" type="matrix" values="0 0 0 0 0 0 0 0 0 0 0 0 0 0 0 0 0 0 127 0" result="hardAlpha"/>
<feOffset dy="4"/>
<feGaussianBlur stdDeviation="2"/>
<feComposite in2="hardAlpha" operator="out"/>
<feColorMatrix type="matrix" values="0 0 0 0 0 0 0 0 0 0 0 0 0 0 0 0 0 0 0.25 0"/>
<feBlend mode="normal" in2="BackgroundImageFix" result="effect1_dropShadow_10_59"/>
<feBlend mode="normal" in="SourceGraphic" in2="effect1_dropShadow_10_59" result="shape"/>
</filter>
</defs>
</svg>
