<svg width="120" height="120" viewBox="0 0 120 120" fill="none" xmlns="http://www.w3.org/2000/svg">
<circle cx="60" cy="81" r="10" fill="#65B307"/>
<circle cx="60" cy="60" r="10" fill="#E5D02D"/>
<circle cx="60" cy="35" r="10" fill="#AD0202"/>
<g filter="url(#filter0_d_40_98)">
<path d="M65.375 87.875C66.7917 86.4583 67.5 84.6667 67.5 82.5C67.5 80.3333 66.7917 78.5417 65.375 77.125C63.9583 75.7083 62.1667 75 60 75C57.8333 75 56.0417 75.7083 54.625 77.125C53.2083 78.5417 52.5 80.3333 52.5 82.5C52.5 84.6667 53.2083 86.4583 54.625 87.875C56.0417 89.2917 57.8333 90 60 90C62.1667 90 63.9583 89.2917 65.375 87.875ZM65.375 65.375C66.7917 63.9583 67.5 62.1667 67.5 60C67.5 57.8333 66.7917 56.0417 65.375 54.625C63.9583 53.2083 62.1667 52.5 60 52.5C57.8333 52.5 56.0417 53.2083 54.625 54.625C53.2083 56.0417 52.5 57.8333 52.5 60C52.5 62.1667 53.2083 63.9583 54.625 65.375C56.0417 66.7917 57.8333 67.5 60 67.5C62.1667 67.5 63.9583 66.7917 65.375 65.375ZM65.375 42.875C66.7917 41.4583 67.5 39.6667 67.5 37.5C67.5 35.3333 66.7917 33.5417 65.375 32.125C63.9583 30.7083 62.1667 30 60 30C57.8333 30 56.0417 30.7083 54.625 32.125C53.2083 33.5417 52.5 35.3333 52.5 37.5C52.5 39.6667 53.2083 41.4583 54.625 42.875C56.0417 44.2917 57.8333 45 60 45C62.1667 45 63.9583 44.2917 65.375 42.875ZM35 75V69.25C30.75 68.0833 27.1883 65.75 24.315 62.25C21.4417 58.75 20.0033 54.6667 20 50H35V44.25C30.75 43.0833 27.1883 40.75 24.315 37.25C21.4417 33.75 20.0033 29.6667 20 25H35C35 22.25 35.98 19.8967 37.94 17.94C39.9 15.9833 42.2533 15.0033 45 15H75C77.75 15 80.105 15.98 82.065 17.94C84.025 19.9 85.0033 22.2533 85 25H100C100 29.6667 98.5633 33.75 95.69 37.25C92.8167 40.75 89.2533 43.0833 85 44.25V50H100C100 54.6667 98.5633 58.75 95.69 62.25C92.8167 65.75 89.2533 68.0833 85 69.25V75H100C100 79.6667 98.5633 83.75 95.69 87.25C92.8167 90.75 89.2533 93.0833 85 94.25V95C85 97.75 84.0217 100.105 82.065 102.065C80.1083 104.025 77.7533 105.003 75 105H45C42.25 105 39.8967 104.022 37.94 102.065C35.9833 100.108 35.0033 97.7533 35 95V94.25C30.75 93.0833 27.1883 90.75 24.315 87.25C21.4417 83.75 20.0033 79.6667 20 75H35Z" fill="white"/>
</g>
<defs>
<filter id="filter0_d_40_98" x="-4" y="0" width="128" height="128" filterUnits="userSpaceOnUse" color-interpolation-filters="sRGB">
<feFlood flood-opacity="0" result="BackgroundImageFix"/>
<feColorMatrix in="SourceAlpha" type="matrix" values="0 0 0 0 0 0 0 0 0 0 0 0 0 0 0 0 0 0 127 0" result="hardAlpha"/>
<feOffset dy="4"/>
<feGaussianBlur stdDeviation="2"/>
<feComposite in2="hardAlpha" operator="out"/>
<feColorMatrix type="matrix" values="0 0 0 0 0 0 0 0 0 0 0 0 0 0 0 0 0 0 0.25 0"/>
<feBlend mode="normal" in2="BackgroundImageFix" result="effect1_dropShadow_40_98"/>
<feBlend mode="normal" in="SourceGraphic" in2="effect1_dropShadow_40_98" result="shape"/>
</filter>
</defs>
</svg>
